<svg width="48" height="48" viewBox="0 0 48 48" fill="none" xmlns="http://www.w3.org/2000/svg">
<circle cx="24" cy="24" r="24" fill="#A8D5BA"/>
<path d="M29.5 22C29.5 20.9 30.4 20 31.5 20C32.6 20 33.5 20.9 33.5 22C33.5 22.96 33.01 23.8 32.25 24.26C32.17 25.16 31.83 26.58 31.5 27H16.5C16.17 26.58 15.83 25.16 15.75 24.26C14.99 23.8 14.5 22.96 14.5 22C14.5 20.9 15.4 20 16.5 20C17.6 20 18.5 20.9 18.5 22C18.5 22.96 18.01 23.8 17.25 24.26C17.55 26.62 18.66 28.5 21 29.42V18C21 16.9 21.9 16 23 16H25C26.1 16 27 16.9 27 18V29.42C29.34 28.5 30.45 26.62 30.75 24.26C29.99 23.8 29.5 22.96 29.5 22Z" fill="#1C3D5A"/>
<path d="M14 30H34V32H14V30Z" fill="#1C3D5A"/>
</svg>
