<svg width="48" height="48" viewBox="0 0 48 48" fill="none" xmlns="http://www.w3.org/2000/svg">
<circle cx="24" cy="24" r="24" fill="#A7F3D0"/>
<path d="M19.9684 27.0378C19.3884 27.0378 18.9984 27.5223 18.9984 28.1023V32.4277C18.9984 33.0077 19.3884 33.4922 19.9684 33.4922H28.0315C28.6115 33.4922 29.0015 33.0077 29.0015 32.4277V28.1023C29.0015 27.5223 28.6115 27.0378 28.0315 27.0378H19.9684Z" fill="#1E3A8A"/>
<path d="M24 14.5078C21.46 14.5078 19.5 15.6973 19.5 17.6562V20.125C19.5 21.0508 20.375 21.5781 21.125 21.5781C21.875 21.5781 22.75 21.0508 22.75 20.125V18.9922C22.75 18.4297 23.2344 18.0391 23.8125 18.0391C24.3906 18.0391 24.875 18.4297 24.875 18.9922V20.125C24.875 21.0508 25.75 21.5781 26.5 21.5781C27.25 21.5781 28.125 21.0508 28.125 20.125V17.6562C28.125 15.6973 26.54 14.5078 24 14.5078ZM24.875 22.8438C24.875 23.7695 24.0312 24.5 23.125 24.5H20.25C19.3438 24.5 18.5 23.7695 18.5 22.8438V22.25C18.5 21.3242 19.3438 20.5938 20.25 20.5938H21.125C21.875 20.5938 22.75 21.1172 22.75 22.25V22.8438C22.75 23.0859 22.9062 23.2422 23.125 23.2422H24.875V22.8438Z" fill="#1E3A8A"/>
</svg>